<?xml version="1.0" encoding="UTF-8" standalone="no"?>
<!-- Created with Inkscape (http://www.inkscape.org/) -->

<svg
   width="97.073662mm"
   height="37.558441mm"
   viewBox="0 0 97.073662 37.558441"
   version="1.1"
   id="svg5"
   xml:space="preserve"
   inkscape:version="1.2.1 (9c6d41e410, 2022-07-14)"
   sodipodi:docname="logo.svg"
   xmlns:inkscape="http://www.inkscape.org/namespaces/inkscape"
   xmlns:sodipodi="http://sodipodi.sourceforge.net/DTD/sodipodi-0.dtd"
   xmlns="http://www.w3.org/2000/svg"
   xmlns:svg="http://www.w3.org/2000/svg"><sodipodi:namedview
     id="namedview7"
     pagecolor="#505050"
     bordercolor="#eeeeee"
     borderopacity="1"
     inkscape:showpageshadow="0"
     inkscape:pageopacity="0"
     inkscape:pagecheckerboard="0"
     inkscape:deskcolor="#505050"
     inkscape:document-units="mm"
     showgrid="false"
     inkscape:zoom="0.64756617"
     inkscape:cx="737.37638"
     inkscape:cy="291.86207"
     inkscape:window-width="3440"
     inkscape:window-height="1369"
     inkscape:window-x="-8"
     inkscape:window-y="1072"
     inkscape:window-maximized="1"
     inkscape:current-layer="layer1" /><defs
     id="defs2"><inkscape:path-effect
       effect="fillet_chamfer"
       id="path-effect464"
       is_visible="true"
       lpeversion="1"
       nodesatellites_param="F,0,0,1,0,2.6458333,0,1 @ F,0,0,1,0,2.6458333,0,1 @ F,0,0,1,0,2.6458333,0,1 @ F,0,0,1,0,2.6458333,0,1"
       unit="px"
       method="auto"
       mode="F"
       radius="10"
       chamfer_steps="1"
       flexible="false"
       use_knot_distance="true"
       apply_no_radius="true"
       apply_with_radius="true"
       only_selected="false"
       hide_knots="false" /><rect
       x="191.09041"
       y="392.00833"
       width="425.85864"
       height="167.06763"
       id="rect296" /></defs><g
     inkscape:label="Layer 1"
     inkscape:groupmode="layer"
     id="layer1"
     transform="translate(-56.46322,-129.72076)"><path
       id="rect460"
       style="fill:#003c72;fill-opacity:1;fill-rule:evenodd;stroke-width:0.649999;stroke-linecap:round"
       d="m 59.109054,129.72076 a 2.6458333,2.6458333 0 0 0 -2.645834,2.64584 v 32.26676 a 2.6458333,2.6458333 0 0 0 2.645834,2.64584 h 91.781996 a 2.6458333,2.6458333 0 0 0 2.64583,-2.64584 V 132.3666 a 2.6458333,2.6458333 0 0 0 -2.64583,-2.64584 z m 11.424625,9.53327 h 2.406055 v 10.49239 c 0,1.57922 0.144695,2.74505 0.434082,3.49746 0.297656,0.74414 0.802019,1.31878 1.513086,1.72392 0.719336,0.40515 1.59577,0.60772 2.629297,0.60772 1.769399,0 3.030306,-0.40101 3.782715,-1.20303 0.752407,-0.80202 1.128613,-2.34405 1.128613,-4.62607 v -10.49239 h 2.406055 v 10.50479 c 0,1.82728 -0.206707,3.27835 -0.620118,4.35322 -0.413411,1.07487 -1.161688,1.9513 -2.244824,2.6293 -1.074869,0.66972 -2.488739,1.00459 -4.241601,1.00459 -1.703254,0 -3.096452,-0.29353 -4.17959,-0.88057 -1.083136,-0.58704 -1.856218,-1.43454 -2.319239,-2.54248 -0.46302,-1.11621 -0.694531,-2.63757 -0.694531,-4.56406 z m 18.231446,0 h 3.621484 l 4.303613,12.87364 c 0.396875,1.19889 0.686263,2.09599 0.868164,2.6913 0.206707,-0.66145 0.529168,-1.63297 0.967383,-2.91455 l 4.353221,-12.65039 h 3.23701 v 18.18184 h -2.31923 v -15.21768 l -5.283403,15.21768 h -2.17041 l -5.258594,-15.47813 v 15.47813 h -2.319238 z m 21.232815,0 h 6.26318 c 1.41387,0 2.49287,0.0868 3.23701,0.26045 1.0418,0.23978 1.93064,0.67386 2.66651,1.30225 0.95911,0.81028 1.67431,1.84795 2.1456,3.11299 0.47956,1.25677 0.71934,2.69544 0.71934,4.31601 0,1.3808 -0.16123,2.6045 -0.48369,3.6711 -0.32246,1.0666 -0.73588,1.9513 -1.24024,2.6541 -0.50436,0.69453 -1.05833,1.24436 -1.66191,1.64951 -0.59531,0.39687 -1.31879,0.69867 -2.17041,0.90537 -0.84336,0.20671 -1.81488,0.31006 -2.91455,0.31006 h -6.56084 z m 18.04541,0 h 2.23242 v 6.48643 c 0.94258,-1.18236 2.14561,-1.77354 3.60908,-1.77354 0.81029,0 1.5751,0.16537 2.29443,0.4961 0.72761,0.32246 1.32292,0.78135 1.78594,1.37666 0.47129,0.58704 0.83923,1.29811 1.10381,2.1332 0.26458,0.83509 0.39688,1.72806 0.39688,2.67891 0,2.25722 -0.55811,4.00182 -1.67432,5.23379 -1.11621,1.23196 -2.45567,1.84794 -4.01836,1.84794 -1.55443,0 -2.77399,-0.64905 -3.65869,-1.94716 v 1.64951 h -2.07119 z m -15.63936,2.14561 v 13.89062 h 3.88194 c 1.19889,0 2.13733,-0.11162 2.81533,-0.33486 0.68626,-0.22324 1.23196,-0.53744 1.63711,-0.94258 0.5705,-0.57051 1.01286,-1.33532 1.32705,-2.29443 0.32246,-0.96738 0.48369,-2.13734 0.48369,-3.50987 0,-1.90169 -0.31419,-3.36103 -0.94258,-4.37802 -0.62012,-1.02526 -1.37666,-1.71153 -2.26963,-2.05879 -0.64492,-0.24805 -1.68259,-0.37207 -3.11299,-0.37207 z m 21.28242,4.40283 c -0.97565,0 -1.81901,0.42582 -2.53007,1.27744 -0.71107,0.84336 -1.06661,2.06706 -1.06661,3.6711 0,1.57923 0.21498,2.72024 0.64493,3.42304 0.70279,1.14929 1.65364,1.72393 2.85253,1.72393 0.97565,0 1.81902,-0.42168 2.53008,-1.26504 0.71107,-0.85163 1.0666,-2.11667 1.0666,-3.79512 0,-1.71979 -0.34313,-2.98896 -1.02939,-3.80752 -0.67799,-0.81855 -1.50069,-1.22783 -2.46807,-1.22783 z" /></g></svg>
