<svg xmlns="http://www.w3.org/2000/svg" xml:space="preserve" width="366.893" height="141.953" viewBox="0 0 97.074 37.558"><path d="M59.11 129.72a2.646 2.646 0 0 0-2.647 2.647v32.266a2.646 2.646 0 0 0 2.646 2.646h91.782a2.646 2.646 0 0 0 2.646-2.646v-32.266a2.646 2.646 0 0 0-2.646-2.646zm11.424 9.534h2.406v10.492c0 1.58.144 2.745.434 3.498a3.382 3.382 0 0 0 1.513 1.724c.72.405 1.596.608 2.63.608 1.769 0 3.03-.401 3.782-1.204.752-.802 1.129-2.344 1.129-4.626v-10.492h2.406v10.505c0 1.827-.207 3.278-.62 4.353-.414 1.075-1.162 1.951-2.245 2.63-1.075.67-2.49 1.004-4.242 1.004-1.703 0-3.096-.294-4.18-.88-1.083-.588-1.856-1.435-2.319-2.543-.463-1.116-.694-2.638-.694-4.564zm18.231 0h3.622l4.303 12.874c.397 1.199.686 2.096.868 2.691.207-.661.53-1.633.968-2.915l4.353-12.65h3.237v18.182h-2.32v-15.218l-5.283 15.218h-2.17l-5.259-15.478v15.478h-2.319zm21.233 0h6.263c1.414 0 2.493.087 3.237.26 1.042.24 1.93.674 2.667 1.303.959.81 1.674 1.848 2.145 3.113.48 1.256.72 2.695.72 4.316 0 1.38-.162 2.604-.484 3.67-.323 1.067-.736 1.952-1.24 2.655-.505.694-1.059 1.244-1.662 1.65-.596.396-1.319.698-2.17.905-.844.207-1.816.31-2.915.31h-6.561zm18.045 0h2.233v6.486c.942-1.182 2.145-1.773 3.609-1.773.81 0 1.575.165 2.294.496a4.558 4.558 0 0 1 1.786 1.377c.472.587.84 1.298 1.104 2.133a8.82 8.82 0 0 1 .397 2.679c0 2.257-.558 4.002-1.674 5.234-1.117 1.232-2.456 1.848-4.019 1.848-1.554 0-2.774-.65-3.658-1.948v1.65h-2.072zm-15.639 2.146v13.89h3.882c1.199 0 2.137-.111 2.815-.335.687-.223 1.232-.537 1.637-.942.57-.57 1.013-1.335 1.327-2.295.323-.967.484-2.137.484-3.51 0-1.901-.314-3.36-.942-4.377-.62-1.026-1.377-1.712-2.27-2.06-.645-.247-1.683-.371-3.113-.371zm21.282 4.402c-.975 0-1.819.426-2.53 1.278-.71.843-1.066 2.067-1.066 3.671 0 1.58.215 2.72.645 3.423.702 1.15 1.653 1.724 2.852 1.724.976 0 1.82-.422 2.53-1.265.711-.852 1.067-2.117 1.067-3.795 0-1.72-.343-2.99-1.03-3.808-.678-.818-1.5-1.228-2.468-1.228z" style="fill:#fff;fill-opacity:1;fill-rule:evenodd;stroke-width:.649999;stroke-linecap:round" transform="translate(-56.463 -129.72)"/></svg>